<svg id="favicon" data-name="Ebene 1" xmlns="http://www.w3.org/2000/svg" viewBox="0 0 180 180">
  <rect width="180" height="180" style="fill:#FFF;" />
  <path d="M28.86,118.34c1.63,0,2.82,.35,3.55,1.03,.73,.69,1.1,1.78,1.1,3.28,0,1.67-.35,2.83-1.05,3.5s-2.03,1-4,1H4.01c-1.13,0-2-.38-2.6-1.16-.6-.77-.9-1.88-.9-3.34s.29-2.54,.87-3.25,1.49-1.06,2.72-1.06h6.45V62.05h-3.5c-2.93,0-4.76-.32-5.47-.97s-1.07-1.82-1.07-3.53c0-1.46,.3-2.57,.9-3.34s1.47-1.16,2.6-1.16H27.16c8.1,0,14.24,1.96,18.44,5.87s6.3,9.68,6.3,17.31-2.08,13.37-6.25,17.24c-4.17,3.87-10.33,5.81-18.49,5.81h-8.75v19.06h10.45Zm-10.45-56.29v28.99h9.35c5.23,0,9.15-1.21,11.75-3.62s3.9-6.06,3.9-10.93-1.31-8.39-3.92-10.81-6.52-3.62-11.72-3.62h-9.35Z"/>
  <path d="M107.08,101.97c0-3.12,.25-5.14,.75-6.06s1.45-1.37,2.85-1.37c1.2,0,2.1,.39,2.7,1.16s.9,1.97,.9,3.59v23.24c0,1.46-.32,2.59-.95,3.41-.63,.81-1.52,1.22-2.65,1.22H63.99c-1.2,0-2.1-.37-2.7-1.12s-.9-1.87-.9-3.37c0-1.67,.36-2.8,1.07-3.41,.72-.6,2.34-.9,4.87-.9h6.25V62.05h-6.25c-2.47,0-4.07-.32-4.82-.97s-1.12-1.82-1.12-3.53c0-1.54,.31-2.67,.92-3.41,.62-.72,1.57-1.09,2.87-1.09h27.04c1.2,0,2.12,.37,2.75,1.12s.95,1.87,.95,3.37c0,1.71-.37,2.89-1.12,3.53s-2.39,.97-4.92,.97h-8.4v56.29h26.59v-16.37Z"/>
  <path d="M136.77,111.16l8.6-37.36c.3-1.33,.64-2.17,1.02-2.53,.38-.35,1.07-.53,2.07-.53h2.25c.97,0,1.66,.19,2.07,.56s.77,1.12,1.07,2.25l9.75,37.61,4.9-49.67h-7.85c-1.53,0-2.66-.33-3.37-1s-1.07-1.73-1.07-3.19c0-1.58,.34-2.69,1.02-3.31s1.96-.94,3.82-.94h16.14c.73,0,1.38,.41,1.95,1.22,.57,.82,.85,1.82,.85,3.03,0,1.42-.32,2.47-.95,3.16-.63,.68-1.58,1.03-2.85,1.03h-.6l-7.1,62.48c-.1,1.29-.29,2.15-.57,2.56s-.74,.62-1.37,.62h-3.55c-.77,0-1.35-.19-1.75-.56s-.75-1.08-1.05-2.12l-10.85-42.98-9.6,43.11c-.23,1.04-.53,1.73-.9,2.06s-.97,.5-1.8,.5h-3.75c-.67,0-1.16-.2-1.47-.59s-.54-1.3-.67-2.72l-7.6-62.35h-.6c-1.3,0-2.27-.35-2.92-1.06s-.97-1.75-.97-3.12c0-1.25,.27-2.27,.8-3.06s1.18-1.19,1.95-1.19h16.19c1.83,0,3.09,.31,3.77,.94s1.02,1.73,1.02,3.31c0,1.46-.36,2.52-1.07,3.19s-1.82,1-3.32,1h-7.05l5.4,49.67Z"/>
</svg>